<svg xmlns="http://www.w3.org/2000/svg" xmlns:xlink="http://www.w3.org/1999/xlink" viewBox="0 0 159.35 93.83"><defs><style>.cls-1,.cls-3{fill:#fff;}.cls-2{clip-path:url(#clip-path);}.cls-3{opacity:0.2;}</style><clipPath id="clip-path" transform="translate(0 22.67)"><path class="cls-1" d="M110.93.64s9.94-1.93,17.08.93L120.47,8.4ZM110.19,2A59.77,59.77,0,0,1,108,19.37l10.78-9.64Zm24.43,37.5c3.66-22.36-5.8-36.32-5.8-36.32l-7,6.49C133.64,21.25,134.62,39.49,134.62,39.49Zm-25-19.27c15.22,5.65,23.71,20.48,23.71,20.48s-2.71-20.41-13.12-29.52Z"/></clipPath></defs><g id="Capa_2" data-name="Capa 2"><g id="Capa_1-2" data-name="Capa 1"><path class="cls-1" d="M110.93.68s9.94-1.94,17.08.93l-7.54,6.83Z" transform="translate(0 22.67)"/><path class="cls-1" d="M118.81,9.76,108,19.41A59.85,59.85,0,0,0,110.19,2Z" transform="translate(0 22.67)"/><path class="cls-1" d="M121.79,9.71l7-6.5s9.46,14,5.81,36.32C134.63,39.53,133.64,21.28,121.79,9.71Z" transform="translate(0 22.67)"/><path class="cls-1" d="M120.19,11.22c10.41,9.12,13.12,29.52,13.12,29.52S124.82,25.9,109.6,20.26Z" transform="translate(0 22.67)"/><path class="cls-1" d="M110.93.64s9.94-1.93,17.08.93L120.47,8.4ZM110.19,2A59.77,59.77,0,0,1,108,19.37l10.78-9.64Zm24.43,37.5c3.66-22.36-5.8-36.32-5.8-36.32l-7,6.49C133.64,21.25,134.62,39.49,134.62,39.49Zm-25-19.27c15.22,5.65,23.71,20.48,23.71,20.48s-2.71-20.41-13.12-29.52Z" transform="translate(0 22.67)"/><g class="cls-2"><path class="cls-3" d="M149.88,49.32c-10.06,3.61-24-9.45-31-29.16s-4.65-38.62,5.42-42.23,24,9.44,31,29.16S159.94,45.71,149.88,49.32Z" transform="translate(0 22.67)"/></g><path class="cls-1" d="M134,40.32a15.22,15.22,0,0,1,1,4,17,17,0,0,1,0,4.16,16.1,16.1,0,0,1-1.09,4,16.9,16.9,0,0,1-2.12,3.63l-.33.41-.31.39c-.2.26-.4.53-.59.8a14.88,14.88,0,0,0-1,1.72,13.19,13.19,0,0,0-1.23,3.78,13.74,13.74,0,0,0,0,4,14.15,14.15,0,0,0,1.09,3.91,12.08,12.08,0,0,1-1.51-3.84,12.76,12.76,0,0,1,1-8.21,14.43,14.43,0,0,1,1-1.83c.19-.29.4-.58.61-.85l.63-.81a16.56,16.56,0,0,0,3.24-7.25,19.94,19.94,0,0,0,.28-4A19,19,0,0,0,134,40.32Z" transform="translate(0 22.67)"/><path class="cls-1" d="M134.19,52.45l-3.58-2a3.18,3.18,0,0,1-.71,2.71Z" transform="translate(0 22.67)"/><path class="cls-1" d="M133.19,51.89l3.92-1.12a4.6,4.6,0,0,0,.11,3.3Z" transform="translate(0 22.67)"/><path class="cls-1" d="M130.63,58.57l-2.19-2.83a2.78,2.78,0,0,1-1.52,1.93Z" transform="translate(0 22.67)"/><path class="cls-1" d="M129.56,57.33l3.54.47A4,4,0,0,0,132,60.49Z" transform="translate(0 22.67)"/><path class="cls-1" d="M128.41,64.17l-2.49-2a2.49,2.49,0,0,1-.91,2Z" transform="translate(0 22.67)"/><path class="cls-1" d="M127.72,63.63l3.16-.36a3.61,3.61,0,0,0-.34,2.55Z" transform="translate(0 22.67)"/><path class="cls-1" d="M134.2,45.2l3.71-3.41s.11,3.07,1.44,4.66Z" transform="translate(0 22.67)"/><path class="cls-1" d="M136,45.63l-4.58-1.14a5.27,5.27,0,0,1,0,3.81Z" transform="translate(0 22.67)"/><path class="cls-1" d="M37.68,50.8c-2.63,1.91-6.87,4.45-11.6,2.67-.52-.4-1-.76-1.49-1.17-2-1.33-.85-2.75-1.86-4.81-.37-.12-.49-.16-.65-.45a2.6,2.6,0,0,1,.49.17l.36-.25c.69-3.75.93-5.17,2.71-7.68.48-.68,1.29-1.49.73-2.17V37c1.69.16,1.85-1.13,3-1.5.6-.2,1.21,0,1.77-.28a6,6,0,0,1,3.28,1l.12,0c0-.12.12-.24.16-.36.29.28.61.57.93.85.33.8,1,1.37,1.21,2.34a21,21,0,0,1-9.41,9.82.68.68,0,0,0-.08.17c.15.28.36.6.52.93,5.41,1.61,8.61-2.71,12-4.77a8.5,8.5,0,0,1,2.51-1.5v.2c-.28.57.13.85,0,1.42-.08.4-.56.44-.73.72s-.16.93-.4,1.34c-.24-.16-.32-.29-.56-.29C40.71,48.78,38.82,50,37.68,50.8Zm-12.2-3a4.16,4.16,0,0,1-.29.36C25.44,48.05,25.56,48.05,25.48,47.82Zm1.57-2.76c1.22-.72,3.64-2.34,3.92-3.84a2.35,2.35,0,0,0-1.49-1.09c-.85,1.3-2.35,3-2.55,4.77A1.11,1.11,0,0,0,27.05,45.06Zm0,8.13c-.08-.16,0,0-.12-.16Zm.44-12.9.29.09-.2-.25ZM29.36,38l0,.12S29.48,38,29.36,38Zm.2-1.17c0,.33,0,.28.2.44h.08C29.76,36.94,29.76,36.94,29.56,36.78Zm.56,9.54H30a1.17,1.17,0,0,1-.08.36H30C30.08,46.56,30.08,46.44,30.12,46.32ZM30,40.13h.21a2.26,2.26,0,0,1-.13-.2C30.08,40,30.08,40.05,30,40.13Zm.81-.68c.08.2.12.2.32.32Zm.69,14c-.16-.16-.33-.28-.48-.44C31.17,53.35,31.17,53.39,31.54,53.47Zm-.08-15.76c.32-.08.36-.08.32-.33A2.53,2.53,0,0,0,31.46,37.71Zm.93,7.11a1.09,1.09,0,0,0-.61-.28c0,.08-.08.12-.08.16Zm.36-2.06c0,.12,0,.24.08.36l.2.09v-.09A2.2,2.2,0,0,0,32.75,42.76Zm.37,1.09c0-.08,0-.16.08-.2h-.08Zm.08-3.35c.07.08.12.2.2.28l.16-.12A.51.51,0,0,0,33.2,40.5Zm1-3.64.29-.08a1.73,1.73,0,0,1,0-.2A1.38,1.38,0,0,1,34.16,36.86Zm.37,2.59h.08V39.2c.2-.08.13-.08.13-.12C34.57,39.24,34.61,39.12,34.53,39.45Zm.21-3a3.61,3.61,0,0,0,.8.76c-.24-.32-.49-.6-.73-.93Zm.8,1.77v.49s.08,0,.12-.08C35.66,38.36,35.66,38.36,35.54,38.23ZM39.38,49l-.28,0s-.08,0-.16,0Z" transform="translate(0 22.67)"/><path class="cls-1" d="M63.15,45.43c0,1.45-.69,2.18-1,3.35l-.08,1.5c-.89,2.51-5.3,3.92-8.69,2.71A14.07,14.07,0,0,1,51,51.62c-4.69,5.17-14.59,1.89-12.53-7A13,13,0,0,1,46,35.48l2.75-.24a6.23,6.23,0,0,1,4.65,1.82v.24l-.61.16v.09a2.08,2.08,0,0,1,1.25.36c-.12,3.11.08,11.4,2.83,11.68a14.29,14.29,0,0,0,5.42-4.48h.4A4.07,4.07,0,0,0,63.15,45.43ZM47.3,39.89l1-1.41H48c-2.18,1.94-4.69,4.56-4.33,8.73.17,1.69.29,2.34,1.58,2.91,1.38-.81,3.12-5,2.75-7.32C47.87,41.83,47.06,40.7,47.3,39.89ZM46.62,53h-.16a.84.84,0,0,0-.08.2C46.62,53.11,46.78,53.23,46.62,53ZM49.53,40.7l-.41.52h.24C49.49,40.94,49.57,40.94,49.53,40.7Zm-.33-1c.12.24.12.2.33.32C49.41,39.81,49.41,39.85,49.2,39.73Zm.65,8a.53.53,0,0,1-.08.24C50,47.82,49.89,48,49.85,47.77Zm2.35,3L52,51l.17.16V51C52.23,50.85,52.28,51,52.2,50.76Zm6.46,1.66a.93.93,0,0,1-.73-.08c.17.24.29.28.65.32Zm.69-3.23c-.16-.24,0-.13-.28-.24a.57.57,0,0,1,.08.24Z" transform="translate(0 22.67)"/><path class="cls-1" d="M58.7,51.21c.89-1.86.81-4.41,1.38-7,.4-2.19.81-4.37,1.21-6.59l-.12-1.74c.12-.12.24-.28.36-.4a2.35,2.35,0,0,0,.53-.09,9.16,9.16,0,0,0,2.22,0c.6.77,1.66,1.18,2.3,1.86-.07.37-.16.73-.24,1.05h.08a2.9,2.9,0,0,0,.53-.52,22.15,22.15,0,0,1,3.39-1.46c4.41-1,8.66,2.87,6.35,6.35-.44,0-.93.08-1.37.08-1.13-.61-1.74-3.72-3.44-3.27-2.83,1.13-5,5.13-6.14,8-.86,2.06-.12,5.34-1.82,6.63a.79.79,0,0,0-.69-.52c.08.2.2.4.28.6-.44-.12-.4-.4-.68-.53-1-.36-2.19.33-3.08-.77C59.15,52.14,59.68,52,58.7,51.21Zm1.54,1.53a1.68,1.68,0,0,0,1-.44h-.2l-.85.36Zm.85-10.1c0,.12.08.2.12.32a1.2,1.2,0,0,0,.16-.32Zm.36-.08a1.36,1.36,0,0,0,.25-.2v-.08h-.25Zm1.86,10.27a.45.45,0,0,1,.2-.21h-.08A.78.78,0,0,0,63.31,52.83Zm0-5.91h.32l.25-.2v-.08H63.6Zm.16-4.4c.33-.12.2,0,.33-.32h-.17A1.57,1.57,0,0,1,63.51,42.52Zm.09,9h-.09v.25A.63.63,0,0,0,63.6,51.53Zm.52-11.64c.12,0,.45-.12.24-.24Zm.16-2.75c0,.12,0,.24.08.37h.16C64.44,37.22,64.48,37.3,64.28,37.14Zm.41,12.49c.08-.16,0,0,0-.16Zm.68-3c.12.16.12.2.29.28s.12,0,.16,0a2.58,2.58,0,0,0-.29-.4h-.08Zm.85-4.2c0-.08,0-.16,0-.24h0Zm.45.2c.08-.08.2-.12.28-.2h-.12A.7.7,0,0,0,66.67,42.64ZM71,37.46h.25l-.09-.16h-.08C71.07,37.35,71,37.38,71,37.46Zm.37.53c.08.08.12.16.16.2l.16,0A1.2,1.2,0,0,0,71.4,38Zm1.45,1.21a7.23,7.23,0,0,0,.93-.16,1.44,1.44,0,0,1-.44-.08Zm2.14.85.25-.08v-.16H75Z" transform="translate(0 22.67)"/><path class="cls-1" d="M87.24,29.91a2.85,2.85,0,0,1,2.75,1,48.46,48.46,0,0,1-.85,5.66,45.09,45.09,0,0,1,6.63.12l0,.16,0,.16c-2.14.44-3.23,2.79-4.85,3.84s-2.83.89-3.64,2.87h.08a2.48,2.48,0,0,1,.89-.77V43c-.2.17-.4.41-.64.61-.53,2.91-.29,5.58,2.06,6.39.93.24,3.15,0,3.84.68a5.51,5.51,0,0,1-1.58,1.74c0-.4,0-.4-.2-.6-.24.36-.37.76-.57,1.13-.89,0-1,.56-1.61.77s-1.7.12-2.31.32a2.23,2.23,0,0,1-.2-.32,2.48,2.48,0,0,1-.49.24,1.38,1.38,0,0,1-.8-.53.81.81,0,0,1,0-.81,1.31,1.31,0,0,0-.45.65l-.16-.12c-.08-.29-.08-.36-.32-.53-.53.13-2.39-1.77-2.51-2.22,0-.36.08-.73.12-1.13a7.59,7.59,0,0,0-.77-1.82c.25-.81.45-5.62,0-6.1a7.78,7.78,0,0,0-1.21.32c-1.9-2.3-3.88-.52-4.65-4.49l.36-.16c.25.12.45.16.74.29a.87.87,0,0,1,.4-.65c.73-.2,1.41.16,2.26-.12a1.49,1.49,0,0,0,.36.8l.21-.16a.81.81,0,0,0-.21-.2,5.32,5.32,0,0,0,2.51.33c-.56-2.23.73-6.31,2.31-7.24.6.32.6.2,1.21,0l.73.36C86.76,30.19,87,30.19,87.24,29.91ZM77.13,39l-.56-.2.24.36h.29Zm2.35-.44v.16C79.56,38.56,79.56,38.68,79.48,38.52Zm1.45,6.1c.16-.44.37-.93.53-1.45h.12c-.12.52-.28,1-.4,1.45l-.09.16-.16,0Zm1.38,0s0-.12.08-.16a.27.27,0,0,1-.12-.16C82.27,44.62,82.11,44.46,82.31,44.62Zm0,1.78a1.83,1.83,0,0,1,0,.93h0v-.12C82.6,46.92,82.63,46.68,82.27,46.4Zm2.22,4.49c-.16-.29-.12-.25-.44-.33l0,.2C84.17,50.8,84.29,50.85,84.49,50.89Zm0,.44H84a.61.61,0,0,0,.48.4ZM84.05,34.6l.16-.16,0-.13A.89.89,0,0,0,84.05,34.6Zm.24,9.66c0-.13,0,0,0-.13Zm.37,1.81-.13-.2c0,.08,0,.25,0,.33A1.92,1.92,0,0,0,84.66,46.07Zm.4,6h-.2c0,.12,0,.2,0,.32C85.06,52.22,84.9,52.38,85.06,52.06Zm1.7,1.45c-.61-.08-.36-.36-.85-.56,0,.2.2.4.24.65C86.47,53.63,86.47,53.72,86.76,53.51Zm.52-6.83c-.2-.24,0-.2-.36-.28C87,46.56,87,46.56,87.28,46.68Zm0,6.63.12-.16h0Zm.61-21.42.2,0,0-.17h-.12C87.93,31.73,87.89,31.85,87.89,31.89Zm.16.77c0-.13,0-.21-.12-.29C87.93,32.53,87.89,32.45,88.05,32.66Zm.81.8A4.9,4.9,0,0,1,89,34s.16-.08.2-.08A.61.61,0,0,0,88.86,33.46Zm.44-2.58a1.1,1.1,0,0,1,.21.4c.16-.12,0,0,.16-.24A3.4,3.4,0,0,0,89.3,30.88Zm0,8.36c.13,0,.16-.12.21-.16h-.08S89.3,39.2,89.3,39.24Zm.81,1.14h-.68a1,1,0,0,0,.76.32v-.32Zm.2-2.06.29.08v-.29h-.29Z" transform="translate(0 22.67)"/><path class="cls-1" d="M107.66,50.8c-2.62,1.91-6.87,4.45-11.6,2.67-.53-.4-1-.76-1.5-1.17-2-1.33-.84-2.75-1.86-4.81-.36-.12-.48-.16-.64-.45a2.3,2.3,0,0,1,.48.17l.37-.25c.68-3.75.93-5.17,2.7-7.68.49-.68,1.3-1.49.73-2.17V37c1.7.16,1.86-1.13,3-1.5.61-.2,1.21,0,1.78-.28a5.92,5.92,0,0,1,3.27,1l.13,0c0-.12.12-.24.16-.36.28.28.61.57.93.85.32.8,1,1.37,1.21,2.34a21.06,21.06,0,0,1-9.42,9.82.68.68,0,0,0-.08.17c.17.28.37.6.53.93,5.41,1.61,8.61-2.71,12-4.77a8.32,8.32,0,0,1,2.5-1.5v.2c-.28.57.12.85,0,1.42-.08.4-.57.44-.73.72s-.16.93-.4,1.34c-.24-.16-.33-.29-.57-.29C110.7,48.78,108.79,50,107.66,50.8Zm-12.21-3a2.72,2.72,0,0,1-.28.36C95.41,48.05,95.53,48.05,95.45,47.82ZM97,45.06c1.21-.72,3.64-2.34,3.92-3.84a2.35,2.35,0,0,0-1.49-1.09c-.86,1.3-2.35,3-2.55,4.77A1.11,1.11,0,0,0,97,45.06Zm0,8.13c-.08-.16,0,0-.12-.16Zm.45-12.9.27.09-.2-.25ZM99.33,38l0,.12S99.46,38,99.33,38Zm.2-1.17c0,.33,0,.28.21.44h.08C99.74,36.94,99.74,36.94,99.53,36.78Zm.57,9.54H100a1.17,1.17,0,0,1-.08.36H100C100.06,46.56,100.06,46.44,100.1,46.32ZM100,40.13h.2c0-.08-.08-.12-.12-.2C100.06,40,100.06,40.05,100,40.13Zm.81-.68c.08.2.12.2.32.32Zm.68,14c-.15-.16-.32-.28-.48-.44C101.15,53.35,101.15,53.39,101.51,53.47Zm-.08-15.76c.33-.08.37-.08.33-.33A2.57,2.57,0,0,0,101.43,37.71Zm.93,7.11a1.05,1.05,0,0,0-.6-.28c0,.08-.08.12-.08.16Zm.37-2.06c0,.12,0,.24.08.36l.2.09v-.09A2.2,2.2,0,0,0,102.73,42.76Zm.36,1.09c0-.08,0-.16.08-.2h-.08Zm.08-3.35c.08.08.13.2.2.28l.17-.12A.53.53,0,0,0,103.17,40.5Zm1-3.64.29-.08a1.43,1.43,0,0,1-.05-.2A1.35,1.35,0,0,1,104.14,36.86Zm.37,2.59h.08V39.2c.2-.08.12-.08.12-.12C104.55,39.24,104.59,39.12,104.51,39.45Zm.2-3a3.66,3.66,0,0,0,.81.76c-.24-.32-.48-.6-.73-.93Zm.81,1.77v.49s.08,0,.12-.08C105.64,38.36,105.64,38.36,105.52,38.23ZM109.36,49l-.28,0s-.09,0-.16,0Z" transform="translate(0 22.67)"/><path class="cls-1" d="M121.73,50.32c-1.46,2.87-6.55,4.61-10.43,3-1.38-.52-2-1.49-2.79-2.34-.36.08-.28.24-.56.08.2-.85-2-2.43-2.75-2.59a.5.5,0,0,0-.21.24v.41l0-.12c-.53-.73-.53-1.58-.93-2a3.58,3.58,0,0,1,.73-.37c.16.53.36.89,1,1v-.32c-.2-.16-.12-.25-.44-.37-.08.21,0,.12-.16.21V47a.52.52,0,0,1,0-.69,7.1,7.1,0,0,1,1.17,1,3.93,3.93,0,0,1-.49-1.09s.08-.13.12-.16c.33,0,.49,0,.61-.33a3.74,3.74,0,0,0-.53.33l.13-.41s.07-.08.12-.08a2.29,2.29,0,0,1,1.78.49.65.65,0,0,1,.36-.33c0-.08,0-.16-.12-.24a2.05,2.05,0,0,1-.57-.32c.81.16.77.72,1.38.89a1.75,1.75,0,0,1,.4-.25,2.1,2.1,0,0,1,.25.28,8.82,8.82,0,0,0,5.86.33c.76-.24,2.87-1.09,2.34-2.43-.2-.48-4.4-.85-5.1-1.29-1.93-1.17-4-4.81-2.78-8.08.32-.93,1.33-1.34,1.65-2.15,3,.12,8.53,2.06,9.91,4-.12.28-.33.61-.44.85,0,.48,0,.92.07,1.41l-2-.16c-.33-.12-.62-.77-.94-.93-1.42-.81-4-.49-4.73.93a1.18,1.18,0,0,0,.33,1.33C120,40.42,125,44,121.73,50.32Zm-14.88.24c-.64-.24-1.54-.77-1.54-1.66L107,50.24l.08.32Zm1.05-1.21a2.76,2.76,0,0,0-.32-.36.87.87,0,0,0-.32-.25,1.21,1.21,0,0,0-.53.41c0,.12,0,.16.12.2a3.31,3.31,0,0,1,.73-.36v.4Zm-.48-2.67h.28V46.4a.6.6,0,0,1,0-.45c-.08-.08-.24-.08-.33-.12A1.28,1.28,0,0,0,107.42,46.68Zm.28,4.21a3.07,3.07,0,0,1-.37-.45A.88.88,0,0,1,107.7,50.89Zm.57-4.45-.24-.12C108.18,46.44,108,46.36,108.27,46.44Zm-.24.08v.16C108.15,46.52,108.07,46.68,108,46.52Zm1.21.77.11,0a2.35,2.35,0,0,0,.33-.41,1.12,1.12,0,0,0-.33-.16C109.32,46.92,109.28,47.08,109.24,47.29Zm.81,3.64c-.09-.13-.13-.29-.25-.37a1.86,1.86,0,0,0-.45-.16c.25.2.61.57.7.61Zm0-4c0,.41.07.41.2.81h0C110.33,47.33,110.33,47.17,110.05,46.92Zm.2-.28.28.12.12-.12a1.41,1.41,0,0,0,0-.24l-.36-.08Zm.64,5h-.12c-.12.09-.16.21-.24.29A2.17,2.17,0,0,0,110.89,51.69Zm0-4.93a4.35,4.35,0,0,1-.28.53h.25c0-.37.12-.21.12-.53Zm.41,3a7.09,7.09,0,0,0-.44.61h0C111.22,50.24,111.5,50,111.3,49.79Zm.52,1.74h-.16v.2A.7.7,0,0,0,111.82,51.53Zm2.23-2.18a1.12,1.12,0,0,1-.2-.32h-.37C113.65,49.11,113.85,49.27,114.05,49.35Zm0-15.16a2.36,2.36,0,0,0,.56.08,4.22,4.22,0,0,1-.44-.28S114.09,34.15,114.05,34.19Zm.12,17.43c0,.28,0,.24.12.36Zm.28,1.77a.73.73,0,0,1-.28.21s0,.07.08.12l.2-.09Zm.77-18.51a.74.74,0,0,1,.08-.24h-.08Zm1,17a1.25,1.25,0,0,0-.12-.31H116C116.11,51.93,116,51.78,116.27,51.93Zm-.2-17.22c.12,0,.2.09.36.13,0-.13,0-.2.08-.24h-.36S116.07,34.68,116.07,34.71Zm.73,15a4.18,4.18,0,0,0-.53-.81c.08.41.08.41.29.57S116.59,49.59,116.8,49.71Zm-.24-2.79c.11-.16.11,0,0-.16Zm.68,2.67c0-.2-.08-.36-.12-.56C117.08,49.39,117,49.35,117.24,49.59Zm1-.12a.71.71,0,0,0-.52-.57A.81.81,0,0,0,118.25,49.47Zm.08-12.93c.16.24.08.12.32,0Zm.81,1c0,.2,0,.08.2.28h0v-.24S119.22,37.55,119.14,37.55Zm.32,9.7h-.12l-.12.12a1.33,1.33,0,0,1,.24.08Zm1.09-2.14c.21.12.33.12.57.24A1.63,1.63,0,0,0,121,45h-.23Zm.65,4c-.16-.08-.36-.12-.53-.21a.94.94,0,0,0,.45.45h.08Zm-.44-12.25c.08.12.2.25.28.36h.08c0-.11-.08-.24-.13-.36Zm.23,7.48c0,.08.05.12.05.16S121.12,44.46,121,44.34Zm.3,2.79c-.13,0-.21-.05-.3-.05C121.12,47.17,121.08,47.17,121.29,47.13Zm.07-.49-.07.12h.11Zm.12-2.22a2.47,2.47,0,0,1,.49.24C121.81,44.42,121.85,44.46,121.48,44.42Zm0,.36a1,1,0,0,0,.13.45h0V45A1.8,1.8,0,0,1,121.48,44.78Z" transform="translate(0 22.67)"/><path class="cls-1" d="M.53,44c.4-2.38.36-5.7,1.17-8.49.57-2,3-6.87,2.67-9.17a7.81,7.81,0,0,0-1.66-3v-.11c.69.36,1.34.68,2,1-.08-.32-.57-1.08-.32-1.61C7,22.89,8.94,24.3,11,24.83l4.9.24C20,25.88,23,27,24.94,29.84L25.43,32c.93,3.51.53,4.08-.81,7.56-1.66,4.24-2.91,8.73-6.31,11.15-1,.45-2,.89-3,1.29-1,.61-1.94,1.26-2.91,1.86l-5-.23c-1.66-.21-3.68,1.16-5.5,0C-.68,51.92-.08,47.43.53,44ZM2,38.33l.36-.12v-.33H2.15Zm1,15,.37.08v-.32H3.19ZM7,49.07c2.68-.38,6.49-1.94,7.85-3.51,4.27-5,8.37-16.47-4.09-16.28-1.08,2-1,4.48-1.6,7.11-.39.84-.79,1.62-1.19,2.4C6.89,41.81,7.23,45.62,7,49.07Zm1.78,3.45.48-.08v-.12l-.48-.12Zm2.46.49L11,52.76c0,.25.09.49.13.69h.12Zm7-3.6c.08.12.16.2.25.32C18.31,49.41,18.44,49.61,18.19,49.41ZM18.92,31h.32a2.53,2.53,0,0,1-.2-.49h-.12Z" transform="translate(0 22.67)"/><path class="cls-1" d="M40.65,60.06a.79.79,0,0,1,0,.2c0,.21-.13.33-.39.37s-.42.08-.47.17l-1,.25a3.69,3.69,0,0,0-1,.39.94.94,0,0,0-.17-.45c-.06-.09-.16-.22-.29-.38s0-.12,0-.21,0-.21,0-.31,0-.31,0-.58,0-.41,0-.41a2.71,2.71,0,0,0-.07-.72,1.09,1.09,0,0,0-.38-.53,1.26,1.26,0,0,1,1-.74l.77-.18a3.52,3.52,0,0,0,.7.13,3.6,3.6,0,0,1,.75.14.37.37,0,0,1,0,.11.36.36,0,0,1-.1.23,1.38,1.38,0,0,0-.14.21.83.83,0,0,0-.31,0h-.31l-.52,0h-.16a.22.22,0,0,1-.11.12.33.33,0,0,1-.15,0h-.21a.3.3,0,0,0-.18,0,.38.38,0,0,0-.11.17,1,1,0,0,0,.23.66,3.93,3.93,0,0,1,.71-.27,2.67,2.67,0,0,1,.8-.13,1.59,1.59,0,0,1,.62.12.94.94,0,0,1-.81.63,5.74,5.74,0,0,0-1.09.29.39.39,0,0,0-.41.28,2.81,2.81,0,0,0-.05.64l.11,0h.12a4.63,4.63,0,0,0,.93-.17c.25-.07.44-.1.59-.13Z" transform="translate(0 22.67)"/><path class="cls-1" d="M47.92,60.28a4.35,4.35,0,0,1-.89.48,2.56,2.56,0,0,1-.94.21,1.67,1.67,0,0,1-.39,0,.53.53,0,0,1-.1.13l-.13,0h-.08a.33.33,0,0,0-.15,0,.4.4,0,0,1-.17-.22.8.8,0,0,1,0-.32v-.29a.94.94,0,0,0,.31-.09.9.9,0,0,1,.35-.1.4.4,0,0,1,.17,0,.8.8,0,0,1,.16.16l.69-.15a.64.64,0,0,0,.53-.49l-2.52-.83s0-.12-.1-.29a.8.8,0,0,1-.07-.31.42.42,0,0,1,0-.17,1.09,1.09,0,0,1,.08-.15l.64-.54a3.87,3.87,0,0,1,.7-.47,1.84,1.84,0,0,1,.77-.18,1.29,1.29,0,0,1,.43.07,1.77,1.77,0,0,1,.43.19.47.47,0,0,1-.13.31.65.65,0,0,1-.44.11h-.33a1.06,1.06,0,0,0-.27,0,.49.49,0,0,0-.2.11,1.26,1.26,0,0,1-.52.26.72.72,0,0,0-.48.48,10.32,10.32,0,0,0,1.58.63l.94.29a.73.73,0,0,1,.21.28.67.67,0,0,1,.07.31A1,1,0,0,1,48,60,2.13,2.13,0,0,1,47.92,60.28Z" transform="translate(0 22.67)"/><path class="cls-1" d="M56.79,59.77a.32.32,0,0,1-.08.2.93.93,0,0,1-.31.26q-.74.15-1.44.36a13.18,13.18,0,0,0-1.38.47,2.26,2.26,0,0,1-.85-.17,1.37,1.37,0,0,1-.75-.66A6.21,6.21,0,0,1,52.77,58a2.86,2.86,0,0,1,1.65-1.43.47.47,0,0,1,.16,0,.55.55,0,0,1,.32.1,1.57,1.57,0,0,1,.28.29.31.31,0,0,1,0,.11.42.42,0,0,1-.1.23,1.38,1.38,0,0,0-.14.21.54.54,0,0,0-.2-.1,1.15,1.15,0,0,0-.26,0,.8.8,0,0,0-.23,0,.39.39,0,0,0-.16.1,5.55,5.55,0,0,0-1,1,3.06,3.06,0,0,0-.61,1.38A3.37,3.37,0,0,0,53,60a3,3,0,0,0,.5,0,12.51,12.51,0,0,0,1.61-.23,4.8,4.8,0,0,1,1-.11A3.29,3.29,0,0,1,56.79,59.77Z" transform="translate(0 22.67)"/><path class="cls-1" d="M64.07,59.79a2.67,2.67,0,0,1-.15.62,1.47,1.47,0,0,1-.38.57l-.55.08a3.2,3.2,0,0,1-.52,0,2.12,2.12,0,0,1-.59-.07,1.33,1.33,0,0,1-.48-.23,1.18,1.18,0,0,1-.59-.74A4,4,0,0,1,60.68,59c0-.13,0-.33,0-.63s0-.45,0-.47a.37.37,0,0,1,.12-.2.26.26,0,0,1,.19-.07.3.3,0,0,1,.31.27l-.18,1.35a2.09,2.09,0,0,0,.05.46,1.66,1.66,0,0,0,.2.4c.29.13.5.22.65.27a2.14,2.14,0,0,0,.65.13,1.24,1.24,0,0,0,.27,0l.27-.09a.83.83,0,0,0,.24-.29.9.9,0,0,0,.08-.36,1.06,1.06,0,0,0-.1-.46c-.14-.41-.29-.83-.43-1.26a.63.63,0,0,1,.13-.39c.31.08.53.38.66.89S64,59.35,64.07,59.79Z" transform="translate(0 22.67)"/><path class="cls-1" d="M71.7,60.06a.79.79,0,0,1,0,.2c0,.21-.13.33-.39.37s-.41.08-.47.17l-1,.25a3.61,3.61,0,0,0-1,.39.94.94,0,0,0-.17-.45c-.06-.09-.16-.22-.29-.38a2.06,2.06,0,0,1,0-.21c0-.1,0-.21,0-.31s0-.31,0-.58,0-.41,0-.41a2.3,2.3,0,0,0-.08-.72,1,1,0,0,0-.37-.53,1.24,1.24,0,0,1,1-.74l.77-.18a3.52,3.52,0,0,0,.7.13,3.73,3.73,0,0,1,.75.14.37.37,0,0,1,0,.11.36.36,0,0,1-.1.23,1.38,1.38,0,0,0-.14.21.87.87,0,0,0-.31,0h-.31l-.52,0h-.16a.22.22,0,0,1-.11.12.33.33,0,0,1-.14,0h-.22A.3.3,0,0,0,69,58a.38.38,0,0,0-.11.17,1,1,0,0,0,.23.66,3.93,3.93,0,0,1,.71-.27,2.65,2.65,0,0,1,.79-.13,1.61,1.61,0,0,1,.63.12.94.94,0,0,1-.81.63,5.74,5.74,0,0,0-1.09.29.39.39,0,0,0-.41.28,2.31,2.31,0,0,0-.05.64l.11,0h.12a4.63,4.63,0,0,0,.93-.17c.25-.07.44-.1.59-.13Z" transform="translate(0 22.67)"/><path class="cls-1" d="M78.77,60.23a.64.64,0,0,1,0,.2.44.44,0,0,1-.26.45c-.27,0-.86,0-1.75.12-.41,0-.77.06-1.07.06a2.88,2.88,0,0,1-.11-.5,4.67,4.67,0,0,1,0-.52A7.43,7.43,0,0,1,75.67,59c.13-.91.2-1.48.2-1.69a.86.86,0,0,1,.34.06.25.25,0,0,1,.15.24.45.45,0,0,1,0,.16L76,60.14l.23.28.25,0a4.7,4.7,0,0,0,1.06-.3,1.76,1.76,0,0,1,.6-.14,1,1,0,0,1,.31.05A1.17,1.17,0,0,1,78.77,60.23Z" transform="translate(0 22.67)"/><path class="cls-1" d="M85.81,60.61a.66.66,0,0,0,0,.13s0,.1,0,.15a.25.25,0,0,1-.09.22h-.08c-.21,0-.33-.18-.39-.54s-.15-.57-.3-.64H83.52l-.63,1.75h-.27a1.77,1.77,0,0,1,0-.3,2.49,2.49,0,0,1,.09-.58c.15-.6.22-.93.22-1,.12-.27.27-.64.45-1.13l.44-1.12a10.91,10.91,0,0,1,.5-1h.28A4.2,4.2,0,0,0,84.84,58c0,.06.21.5.56,1.3A5.31,5.31,0,0,1,85.81,60.61ZM84.56,59a.53.53,0,0,1-.11-.35c0-.19-.07-.29-.17-.32a.34.34,0,0,0-.21.2c-.07.18-.14.37-.2.55H84l.15,0a.18.18,0,0,0,.18-.11l.07.08Z" transform="translate(0 22.67)"/></g></g></svg>